<?xml version="1.0" encoding="UTF-8" standalone="no"?>
<svg
   xmlns:dc="http://purl.org/dc/elements/1.1/"
   xmlns:cc="http://creativecommons.org/ns#"
   xmlns:rdf="http://www.w3.org/1999/02/22-rdf-syntax-ns#"
   xmlns:svg="http://www.w3.org/2000/svg"
   xmlns="http://www.w3.org/2000/svg"
   xmlns:sodipodi="http://sodipodi.sourceforge.net/DTD/sodipodi-0.dtd"
   xmlns:inkscape="http://www.inkscape.org/namespaces/inkscape"
   height="32px"
   version="1.1"
   viewBox="0 0 32 32"
   width="32px"
   id="svg11"
   sodipodi:docname="no-results.svg"
   inkscape:version="0.92.1 r15371">
  <metadata
     id="metadata15">
    <rdf:RDF>
      <cc:Work
         rdf:about="">
        <dc:format>image/svg+xml</dc:format>
        <dc:type
           rdf:resource="http://purl.org/dc/dcmitype/StillImage" />
      </cc:Work>
    </rdf:RDF>
  </metadata>
  <sodipodi:namedview
     pagecolor="#ffffff"
     bordercolor="#666666"
     borderopacity="1"
     objecttolerance="10"
     gridtolerance="10"
     guidetolerance="10"
     inkscape:pageopacity="0"
     inkscape:pageshadow="2"
     inkscape:window-width="1920"
     inkscape:window-height="1017"
     id="namedview13"
     showgrid="false"
     inkscape:zoom="7.9038524"
     inkscape:cx="12.624939"
     inkscape:cy="17.099259"
     inkscape:window-x="-8"
     inkscape:window-y="-8"
     inkscape:window-maximized="1"
     inkscape:current-layer="svg11" />
  <title
     id="title2" />
  <desc
     id="desc4" />
  <defs
     id="defs6" />
  <g
     style="fill:#929292;fill-rule:evenodd;stroke:none;stroke-width:1"
     id="icon-74-document-search">
    <path
       inkscape:connector-curvature="0"
       id="document-search"
       d="M 17.308843,22.01595 C 16.539007,22.631764 15.562507,23 14.5,23 12.014719,23 10,20.985281 10,18.5 10,16.014718 12.014719,14 14.5,14 c 2.485281,0 4.5,2.014718 4.5,4.5 0,1.062507 -0.368236,2.039007 -0.98405,2.808843 l 5.348011,5.348011 -0.707107,0.707107 z M 19.5,3 H 9.0027601 C 7.8966662,3 7,3.8983383 7,5.0073299 V 27.99267 C 7,29.101288 7.8909254,30 8.9974219,30 H 24.002578 C 25.105724,30 26,29.101788 26,28.009205 V 10.5 10 L 20,3 H 19.5 Z M 19,4 H 8.9955775 C 8.4457352,4 8,4.4552629 8,4.995457 V 28.004543 C 8,28.554319 8.4547089,29 8.9999602,29 H 24.00004 C 24.552303,29 25,28.555054 25,28.006602 V 11 H 20.997913 C 19.894496,11 19,10.113445 19,8.994081 Z m 1,0.5 V 8.9912152 C 20,9.5483517 20.450651,10 20.996739,10 h 3.703212 z M 14.5,22 C 16.432997,22 18,20.432997 18,18.5 18,16.567003 16.432997,15 14.5,15 12.567003,15 11,16.567003 11,18.5 c 0,1.932997 1.567003,3.5 3.5,3.5 z" />
  </g>
  <g
     id="g4600"
     transform="rotate(45,12.23408,15.316684)">
    <path
       inkscape:connector-curvature="0"
       id="path4581"
       d="m 13.307651,16 h 5.384698"
       style="fill:none;stroke:#929292;stroke-width:0.85130435;stroke-linecap:butt;stroke-linejoin:miter;stroke-miterlimit:4;stroke-dasharray:none;stroke-opacity:1" />
    <path
       inkscape:connector-curvature="0"
       id="path4581-5"
       d="m 16,13.307651 v 5.384698"
       style="fill:none;stroke:#929292;stroke-width:0.85130435;stroke-linecap:butt;stroke-linejoin:miter;stroke-miterlimit:4;stroke-dasharray:none;stroke-opacity:1" />
  </g>
</svg>
